<svg xmlns="http://www.w3.org/2000/svg" id="Layer_1" data-name="Layer 1" viewBox="0 0 695.42 701.83"><defs><style>.cls-1{fill:#fecc04;}.cls-2{fill:#26a9df;}.cls-3{fill:#fecc02;}.cls-4{fill:#faae17;}.cls-5{fill:#faae16;}.cls-6{fill:#24a9df;}.cls-7{fill:#25a9df;}.cls-8{fill:#fecb00;}.cls-9{fill:#faad15;}.cls-10{fill:#f38120;}.cls-11{fill:#f3811f;}.cls-12{fill:#f48628;}.cls-13{fill:#f38526;}.cls-14{fill:#f38322;}.cls-15{fill:#f38323;}.cls-16{fill:#f38525;}</style></defs><path class="cls-1" d="M953.38,428.16c0,35.69,0,35.69-34.93,35.69-39.65,0-39.65,0-39.65-39.31,0-34,0-34,34.9-34h2.1C953.38,390.57,953.38,390.57,953.38,428.16Z" transform="translate(-474.39 -170.77)"/><path class="cls-2" d="M915.18,556.61c-36.4,0-36.4,0-36.4-35.92,0-36.38,0-36.38,36.18-36.38,38.42,0,38.42,0,38.42,38.27C953.38,556.61,953.38,556.61,915.18,556.61Z" transform="translate(-474.39 -170.77)"/><path class="cls-3" d="M693.05,427.94c0-37.34,0-37.34,37.32-37.34,34.72,0,34.72,0,34.72,33.83,0,39.4,0,39.4-39.61,39.4C693.05,463.83,693.05,463.83,693.05,427.94Z" transform="translate(-474.39 -170.77)"/><path class="cls-3" d="M953.36,618.74c0,36.2,0,36.2-36.19,36.2-38.35,0-38.35,0-38.35-38.28,0-33.88,0-33.88,34.17-33.88h4.19C953.36,582.78,953.36,582.78,953.36,618.74Z" transform="translate(-474.39 -170.77)"/><path class="cls-4" d="M915.77,355.45c-34.1,0-37-2.89-37-37.08,0-33,4.25-37.21,37.65-37.15,32.83,0,36.93,4.26,36.92,37.81S950.5,355.45,915.77,355.45Z" transform="translate(-474.39 -170.77)"/><path class="cls-5" d="M857.42,316.79c0,35-2.65,37.74-36.25,37.73-34.38,0-36.78-2.42-36.79-37,0-35.59,1.82-37.48,36.07-37.47C855.22,280,857.41,282.22,857.42,316.79Z" transform="translate(-474.39 -170.77)"/><path class="cls-5" d="M915.4,691.31c35.55,0,38,2.25,38,35.77,0,34.94-2.39,37.41-36.54,37.43-36,0-38.06-2-38-38C878.84,694.05,881.68,691.32,915.4,691.31Z" transform="translate(-474.39 -170.77)"/><path class="cls-6" d="M822.62,389.54c34.78,0,34.78,0,34.78,35.51,0,36.67,0,36.67-35.8,36.67-37.17,0-37.17,0-37.17-37.68C784.43,389.54,784.43,389.54,822.62,389.54Z" transform="translate(-474.39 -170.77)"/><path class="cls-7" d="M729.46,484.32c35.6,0,35.6,0,35.6,35.07,0,37.21,0,37.21-37.62,37.21-34.37,0-34.37,0-34.37-34v-2.1C693.07,484.32,693.07,484.32,729.46,484.32Z" transform="translate(-474.39 -170.77)"/><path class="cls-6" d="M857,520.43C857,557,857,557,821,557c-36.1,0-36.1,0-36.1-36.53,0-35.57,0-35.57,35-35.57H822C857,484.87,857,484.87,857,520.43Z" transform="translate(-474.39 -170.77)"/><path class="cls-8" d="M728.19,582.8c36.88,0,36.88,0,36.88,37.36,0,34.77,0,34.77-35.29,34.77-36.71,0-36.71,0-36.71-37.39C693.07,582.8,693.07,582.8,728.19,582.8Z" transform="translate(-474.39 -170.77)"/><path class="cls-6" d="M825.22,582.78c35.95,0,35.95,0,35.95,36.54,0,35.56,0,35.56-34.95,35.56-37.09,0-37.09,0-37.09-37.67C789.13,582.78,789.13,582.78,825.22,582.78Z" transform="translate(-474.39 -170.77)"/><path class="cls-5" d="M861.62,725.93c0,35.32-2,37.37-36.15,37.38-35.5,0-37.23-1.79-37.18-38.6,0-32.83,2.88-35.63,36.1-35.62C858.49,689.11,861.61,692.2,861.62,725.93Z" transform="translate(-474.39 -170.77)"/><path class="cls-5" d="M765.07,321.34c-.05,33.05-1.33,34.17-39.1,34.1-31.87-.05-33-1.42-32.91-40.37.06-30.14,4-33.85,36.13-33.84C762.9,281.25,765.13,283.74,765.07,321.34Z" transform="translate(-474.39 -170.77)"/><path class="cls-4" d="M655.72,427.8c0,34.85-1.28,36.08-36.83,36.05-33.64,0-35.2-1.71-35.19-37.78,0-32.26,3.33-35.53,35.86-35.52C652.86,390.56,655.74,393.53,655.72,427.8Z" transform="translate(-474.39 -170.77)"/><path class="cls-5" d="M1060.51,428.09c0,34.75-1.11,35.78-37,35.76-32.68,0-35.39-3-35.36-38.1,0-31.25,4.08-35.14,36.63-35.2C1058.15,390.49,1060.55,393,1060.51,428.09Z" transform="translate(-474.39 -170.77)"/><path class="cls-5" d="M655.71,618.43c0,35.39-.92,36.43-33.86,36.48-37.4.05-38.12-.6-38.14-34.38,0-36.64,1-37.73,34.91-37.74C654.54,582.77,655.67,583.86,655.71,618.43Z" transform="translate(-474.39 -170.77)"/><path class="cls-5" d="M619.49,484.26c35.53,0,36.24.71,36.23,36.08,0,34.89-1.4,36.26-36.67,36.24-33.44,0-35.35-2.05-35.34-37.64C583.72,485.55,585,484.27,619.49,484.26Z" transform="translate(-474.39 -170.77)"/><path class="cls-9" d="M765.06,727.58c0,35.56-1.38,37-36.25,36.92-34.57,0-35.75-1.29-35.74-37.51,0-34.52,1.24-35.69,37.43-35.67C764,691.35,765.06,692.46,765.06,727.58Z" transform="translate(-474.39 -170.77)"/><path class="cls-5" d="M1025.46,484.26c34.31,0,35.06.8,35,35.58,0,35.79-1.12,36.84-38.75,36.75-30.56-.08-33.64-3.6-33.6-38.4C988.2,485.79,989.93,484.22,1025.46,484.26Z" transform="translate(-474.39 -170.77)"/><path class="cls-5" d="M1024,654.91c-34.64,0-35.86-1.26-35.83-37,0-32.72,2.66-35.14,38.18-35.11,32.62,0,34.18,1.69,34.17,36.49C1060.5,654.56,1060.14,654.91,1024,654.91Z" transform="translate(-474.39 -170.77)"/><path class="cls-10" d="M953.11,209.75c0,19.16-16.55,35.66-36.41,36.23-20.39.59-38.1-16.79-37.7-37,.4-19.65,17-36.32,36.32-36.38C936.12,172.53,953.08,189.2,953.11,209.75Z" transform="translate(-474.39 -170.77)"/><path class="cls-11" d="M857.37,208.18c0,19.49-16.36,36.08-36,36.52-20.35.45-37.3-16.69-36.94-37.35.35-20.18,16.08-36.33,35.61-36.58C840.31,170.52,857.38,187.64,857.37,208.18Z" transform="translate(-474.39 -170.77)"/><path class="cls-11" d="M619.51,691.55c20.07-.09,35.51,15.2,36,35.6.49,21.3-15.41,37.4-36.5,37a35.62,35.62,0,0,1-35.24-36.42C584.11,707.78,600.07,691.64,619.51,691.55Z" transform="translate(-474.39 -170.77)"/><path class="cls-11" d="M953.11,836.7c.1,19.47-16.15,35.47-36.46,35.89s-37-15-37.67-34.6c-.7-20.15,16.72-37.38,37.43-37C936.55,801.29,953,817.32,953.11,836.7Z" transform="translate(-474.39 -170.77)"/><path class="cls-11" d="M729.41,172.53c20.6.31,36.32,17.45,35.52,38.72-.75,19.77-17.7,35.55-37.28,34.72a36.15,36.15,0,0,1-34.48-37.57C693.81,187.8,709.54,172.23,729.41,172.53Z" transform="translate(-474.39 -170.77)"/><path class="cls-11" d="M510.5,654.6c-20.33,0-36.1-15.46-36.11-35.48a36.43,36.43,0,0,1,35.88-36.26c21.31-.16,37.45,16,37.06,37C547,640.08,531.59,654.57,510.5,654.6Z" transform="translate(-474.39 -170.77)"/><path class="cls-11" d="M729.83,872.56c-20.34.48-36.05-14.29-36.68-34.49s14.18-36.31,34.12-37.14c20.86-.87,37.58,14.94,37.73,35.66C765.15,856.9,750.31,872.07,729.83,872.56Z" transform="translate(-474.39 -170.77)"/><path class="cls-11" d="M1060.35,318.51c-.12,21.16-14.69,36.63-34.75,36.89s-37.5-17.33-37.2-37.55c.3-19.75,16.67-35.51,36.75-35.38C1045.88,282.61,1060.46,297.54,1060.35,318.51Z" transform="translate(-474.39 -170.77)"/><path class="cls-11" d="M861.43,832.28c-.5,19.48-17.09,35.13-37.12,35-21.13-.12-36.7-16.79-35.65-38.16,1-20.26,17-34.44,37.79-33.57C847,796.42,862,812.16,861.43,832.28Z" transform="translate(-474.39 -170.77)"/><path class="cls-11" d="M547.34,426.71c.4,20.64-16.24,37.18-37.17,36.94-19.22-.22-35.9-17.21-35.78-36.45.13-19.88,15.89-35.21,36.29-35.3S547,406.73,547.34,426.71Z" transform="translate(-474.39 -170.77)"/><path class="cls-11" d="M547.34,519.69a36.31,36.31,0,0,1-37.77,36.46c-19.42-.59-35.51-17.56-35.18-37.11.35-20.21,15.88-34.79,36.85-34.61S547.31,499.23,547.34,519.69Z" transform="translate(-474.39 -170.77)"/><path class="cls-11" d="M1060.4,727.36c.36,21.07-13.9,36.27-34.44,36.69-20,.41-36.84-15.06-37.54-34.43-.73-20.32,16.16-38,36.37-38.08C1045.17,691.47,1060,706.41,1060.4,727.36Z" transform="translate(-474.39 -170.77)"/><path class="cls-11" d="M655.5,318.63c0,20-15.75,36.41-35.13,36.73-19.93.33-36.79-17-36.61-37.71.17-19.76,16.34-35.32,36.48-35.1C640.55,282.78,655.54,298.12,655.5,318.63Z" transform="translate(-474.39 -170.77)"/><path class="cls-11" d="M1133.48,582.9a35.4,35.4,0,0,1,36.29,35.37c.26,20.55-14.65,36-35,36.37-19.54.32-36.71-16-36.88-35.06C1097.7,600.18,1114.13,583.26,1133.48,582.9Z" transform="translate(-474.39 -170.77)"/><path class="cls-10" d="M1169.8,518.65c.45,20-15,36.8-34.43,37.57-18.62.73-36.62-16.1-37.5-35.09-.91-19.76,14.62-36,35-36.53C1153.86,484,1169.34,498.31,1169.8,518.65Z" transform="translate(-474.39 -170.77)"/><path class="cls-11" d="M1169.67,427.44c0,19.8-16.09,36.29-35.48,36.28-18.74,0-36.19-17.36-36.32-36.12-.12-19.15,16.58-35.61,36.18-35.66C1154.35,391.89,1169.64,407.13,1169.67,427.44Z" transform="translate(-474.39 -170.77)"/><path class="cls-12" d="M1134.56,710.22c-2.61,10.63-8,19.1-19.61,18.18-11.18-.88-17.69-9.08-16.68-20.2.88-9.74,6.77-17,17.91-16.6C1127.92,692.06,1133.23,699.36,1134.56,710.22Z" transform="translate(-474.39 -170.77)"/><path class="cls-13" d="M1134.44,337.89c-2.62,10.57-8.44,18-20,17.15-10.63-.79-16.43-8.61-16.12-18.44.33-10.66,6.64-19.06,18.38-18.41C1127.92,318.81,1133.24,326.93,1134.44,337.89Z" transform="translate(-474.39 -170.77)"/><path class="cls-12" d="M1025.17,226.74c-1.42,11.31-6.63,19.15-18.5,19.13-10.71,0-17.11-7.27-17.87-17.18-.91-11.89,7.2-18.31,18.18-18.64C1017.42,209.73,1023.26,216.77,1025.17,226.74Z" transform="translate(-474.39 -170.77)"/><path class="cls-14" d="M547.34,335.66c-.71,12-6.94,19-18.28,19.36-10.47.29-17.16-6.1-17.82-16.68-.72-11.39,5.35-19.43,16.67-20.11S545.58,324.93,547.34,335.66Z" transform="translate(-474.39 -170.77)"/><path class="cls-15" d="M528.27,729c-11-2.19-17.72-8.56-17.15-20.09.52-10.48,6.89-17,17.5-17.1,11.65-.1,18.41,6.78,18.41,18.31C547,721.8,539.3,727.24,528.27,729Z" transform="translate(-474.39 -170.77)"/><path class="cls-16" d="M1025.28,818.24c-2.26,12.37-8.53,18.74-20.41,17.71-10.9-1-16.73-7.91-16-18.28.79-11.32,7.74-17.76,19.78-16.68C1019.65,802,1024,809.26,1025.28,818.24Z" transform="translate(-474.39 -170.77)"/><path class="cls-13" d="M638,209.65c9.61,1.37,17,5.64,17.37,16.73.41,11.5-5.42,18.92-17,19.28-10.34.33-16.91-5.95-17.74-16.47C619.71,217.31,626.62,211.53,638,209.65Z" transform="translate(-474.39 -170.77)"/><path class="cls-14" d="M655.51,818.22c-.38,11.28-6,17.35-16.65,17.67-11.62.34-18.27-5.69-18.29-17.52,0-10.7,6-16.86,16.55-17.29C648.85,800.6,654.79,807.17,655.51,818.22Z" transform="translate(-474.39 -170.77)"/></svg>